<svg xmlns="http://www.w3.org/2000/svg" width="1024" height="1024" viewBox="0 0 1024 1024">
<g>
<path d="M 455.21 696.96 C446.12,699.48 438.02,696.84 430.35,688.83 C421.67,679.76 419.30,669.59 423.65,659.97 C425.37,656.14 428.53,653.22 444.10,641.03 C454.22,633.10 471.66,619.38 482.85,610.55 L 485.06 608.81 C507.08,591.43 510.11,589.04 513.06,589.13 C513.63,589.15 514.19,589.25 514.89,589.37 C518.28,589.91 519.21,589.48 525.55,584.40 C529.37,581.34 532.41,578.31 532.30,577.67 C532.19,577.03 530.17,571.71 527.80,565.85 L 523.50 555.20 L 487.90 554.85 C458.68,554.56 451.99,554.24 450.56,553.05 C448.91,551.68 448.91,551.54 450.60,550.30 C451.98,549.29 460.07,549.00 486.63,549.00 C505.47,549.00 521.10,548.64 521.37,548.20 C521.64,547.77 521.62,545.59 521.32,543.36 L 520.78 539.32 L 487.84 538.69 C454.17,538.05 449.50,537.48 449.50,533.99 C449.50,532.71 454.42,532.43 484.50,532.00 L 519.50 531.50 L 520.10 516.50 C520.63,503.20 522.96,488.26 525.49,481.84 C526.10,480.30 523.18,480.14 489.11,479.84 C456.92,479.54 451.86,479.29 450.48,477.91 C447.02,474.44 450.31,474.10 487.99,473.95 C521.08,473.82 524.50,473.96 525.62,475.50 C526.69,476.96 527.34,476.15 530.54,469.34 C532.57,465.03 534.25,460.94 534.28,460.25 C534.31,459.56 534.69,459.00 535.13,459.00 C535.57,459.00 537.69,456.41 539.86,453.25 C564.44,417.28 605.14,396.97 647.94,399.31 C653.75,399.63 659.51,400.19 660.75,400.56 L 663.00 401.23 L 663.00 322.46 L 660.40 318.64 C656.16,312.40 654.16,312.00 627.03,312.00 L 603.00 312.00 L 603.00 319.53 C603.00,328.50 601.55,332.43 596.66,336.72 C595.69,337.58 594.86,338.31 593.97,338.95 C588.25,343.00 579.66,343.00 512.94,342.99 L 511.07 342.99 C461.71,342.99 438.26,342.64 435.50,341.88 C430.10,340.38 424.54,336.26 422.09,331.93 C420.79,329.62 419.84,325.49 419.39,320.18 L 418.71 312.00 L 394.50 312.00 C371.05,312.00 370.19,312.07 366.99,314.25 C365.17,315.49 362.74,317.77 361.59,319.32 L 359.50 322.15 L 359.50 638.66 L 362.38 642.44 C367.59,649.26 370.57,649.95 394.82,649.98 L 416.14 650.00 L 414.21 652.75 C413.15,654.26 411.85,656.85 411.31,658.50 L 410.34 661.50 L 392.43 661.77 C376.62,662.02 373.71,661.80 367.62,659.95 C362.00,658.25 359.77,656.90 355.52,652.65 C354.11,651.24 352.94,650.41 351.96,649.39 C346.91,644.16 346.93,634.04 347.17,516.97 C347.19,505.24 347.21,492.43 347.24,478.46 L 347.50 319.50 L 349.70 315.39 C352.69,309.79 360.86,302.67 366.15,301.03 C369.33,300.05 376.28,299.75 392.03,299.92 C415.77,300.17 419.00,299.80 419.00,296.82 C419.00,294.90 418.32,294.86 393.75,295.22 C371.64,295.55 367.89,295.84 363.56,297.55 C356.78,300.23 347.84,308.69 344.88,315.24 L 342.50 320.50 L 342.50 640.50 L 345.31 646.22 C348.81,653.36 357.37,661.20 364.96,664.22 C369.85,666.17 372.75,666.47 389.72,666.79 L 408.94 667.15 L 409.52 670.83 C410.79,678.84 412.24,683.68 414.52,687.60 L 416.91 691.70 L 406.30 692.35 C380.79,693.91 365.91,692.67 357.05,688.23 C349.00,684.20 341.07,676.39 337.27,668.74 C336.44,667.08 335.72,665.79 335.10,664.46 C331.01,655.69 331.01,645.02 331.02,514.14 C331.02,505.88 331.02,497.14 331.01,487.89 C331.01,382.80 331.35,324.39 332.01,320.89 C333.59,312.50 337.71,305.22 345.01,297.92 C355.99,286.94 357.44,286.58 392.75,286.20 C410.15,286.02 422.00,285.51 422.00,284.95 C422.00,283.14 429.08,276.19 432.77,274.37 C435.76,272.89 439.74,272.43 452.89,272.01 L 469.28 271.50 L 470.53 267.29 C476.29,247.71 497.04,235.47 518.72,238.84 C522.85,239.48 528.28,240.92 530.79,242.02 C540.55,246.34 548.59,255.46 552.61,266.75 L 554.47 272.00 L 568.05 272.00 C586.15,272.00 590.77,273.34 597.53,280.53 L 602.55 285.88 L 631.53 286.19 C659.24,286.49 660.72,286.60 665.45,288.78 C677.05,294.13 686.42,304.39 690.21,315.90 C691.82,320.77 692.00,325.77 692.00,365.55 L 692.00 409.78 L 694.25 410.35 C695.49,410.66 701.45,414.13 707.50,418.05 C726.59,430.43 743.34,449.65 752.99,470.24 C762.59,490.73 766.33,518.84 762.46,541.50 C755.31,583.34 732.03,617.92 699.82,634.50 L 692.22 638.41 L 691.78 647.96 C691.44,655.32 690.74,658.96 688.68,663.89 C683.39,676.62 674.29,685.43 661.50,690.23 L 655.50 692.48 L 581.00 692.75 C540.03,692.90 500.93,692.68 494.12,692.26 L 481.73 691.50 L 493.90 681.12 C500.59,675.42 506.51,669.92 507.05,668.90 C507.99,667.14 511.29,667.05 580.79,666.78 L 653.54 666.50 L 660.36 663.14 C664.11,661.30 668.72,658.14 670.61,656.14 C674.75,651.75 679.52,644.00 678.09,644.00 C675.38,644.00 669.76,647.73 668.02,650.69 C665.79,654.46 658.30,659.57 652.84,661.04 C648.95,662.09 515.72,662.39 514.69,661.35 C514.38,661.04 516.26,658.02 518.87,654.64 C521.48,651.26 523.95,647.94 524.36,647.25 C525.49,645.38 523.76,645.74 520.97,647.97 C519.61,649.05 515.52,652.09 511.88,654.72 C508.24,657.35 498.56,664.93 490.38,671.58 C469.26,688.72 459.48,695.77 455.21,696.96 ZM 621.00 629.89 C650.89,635.32 680.26,628.86 706.00,611.18 C727.54,596.39 742.14,576.72 749.42,552.68 C763.66,505.70 748.32,459.72 708.33,429.50 C685.53,412.28 656.50,404.49 628.30,408.02 C581.36,413.91 543.53,447.26 531.91,493.00 C529.83,501.20 529.50,504.82 529.50,519.50 C529.50,530.24 529.99,538.52 530.83,542.00 C536.14,563.90 544.18,578.92 559.65,595.82 C576.35,614.07 597.00,625.54 621.00,629.89 ZM 661.15 620.10 C648.84,622.60 631.72,622.53 619.34,619.93 C592.09,614.21 565.59,594.95 552.31,571.23 C542.57,553.83 538.46,536.20 539.30,515.50 C540.29,491.39 547.62,472.52 563.15,454.06 C591.24,420.69 639.53,408.90 680.48,425.41 C737.04,448.22 761.03,513.20 732.81,567.18 C718.32,594.89 692.93,613.65 661.15,620.10 ZM 622.34 611.05 C633.51,613.66 654.15,613.17 664.93,610.05 C687.16,603.60 707.17,589.02 719.90,569.98 C730.08,554.77 734.48,539.42 734.36,519.50 C734.25,500.46 730.06,486.85 719.44,471.01 C710.21,457.25 692.17,441.86 678.34,435.93 C672.02,433.22 656.50,429.20 649.43,428.44 C641.57,427.59 623.73,429.53 615.20,432.16 C591.00,439.63 569.85,458.17 558.06,482.24 C553.22,492.13 551.22,499.45 550.07,511.50 C548.44,528.54 551.19,545.13 558.07,559.86 C569.89,585.16 594.12,604.46 622.34,611.05 ZM 733.34 864.45 C712.71,868.06 684.86,864.86 655.00,855.47 C629.92,847.58 587.65,828.40 551.17,808.35 C521.40,792.00 487.75,770.83 460.12,751.07 C440.32,736.91 412.85,715.65 404.27,707.85 L 400.04 704.00 L 413.56 704.00 C426.31,704.00 427.36,704.15 432.28,706.72 C436.67,709.00 438.86,709.46 446.08,709.58 L 454.66 709.72 L 473.58 723.22 C506.04,746.39 527.30,759.43 562.00,777.42 C615.52,805.17 651.37,820.52 678.86,827.45 C722.67,838.49 749.37,834.67 769.50,814.48 C782.38,801.56 790.61,783.44 795.25,757.83 C797.21,747.00 797.48,742.09 797.49,717.50 C797.50,691.53 796.27,673.68 793.35,657.25 C792.82,654.23 793.05,653.88 796.50,652.44 C798.54,651.58 800.32,651.02 800.46,651.19 C801.80,652.91 805.55,679.08 807.52,700.48 C811.90,748.08 806.55,790.96 792.79,818.46 C779.62,844.79 760.31,859.73 733.34,864.45 ZM 319.00 631.58 C319.00,633.24 318.45,633.98 317.25,633.93 C314.56,633.83 280.46,623.80 261.86,617.64 C187.83,593.11 133.44,560.23 112.15,527.15 C104.40,515.10 100.86,501.01 102.76,489.75 C109.17,451.64 158.13,413.16 251.83,372.60 C275.36,362.42 313.79,348.00 317.42,348.00 C318.79,348.00 319.00,349.89 319.00,361.94 C319.00,370.15 318.59,376.14 318.00,376.50 C317.45,376.84 310.36,379.38 302.25,382.14 C288.68,386.77 273.00,392.83 273.00,393.45 C273.00,394.20 292.41,431.83 296.83,439.64 C299.67,444.66 302.00,448.99 302.00,449.26 C302.00,449.53 299.52,454.11 296.50,459.46 C293.48,464.80 291.00,469.80 291.00,470.58 C291.00,475.61 285.88,467.37 275.49,445.61 C271.32,436.86 265.43,423.82 262.41,416.62 C259.39,409.41 256.54,403.14 256.07,402.67 C255.04,401.64 230.01,413.21 209.79,424.06 C166.28,447.41 138.42,469.35 128.48,488.11 C124.85,494.94 124.56,496.10 124.57,503.50 C124.58,509.49 125.12,512.68 126.70,516.17 C133.07,530.23 150.03,547.76 171.41,562.40 C190.80,575.68 227.80,594.87 253.06,604.75 C266.64,610.07 295.06,619.33 313.80,624.54 C318.45,625.83 319.96,626.67 319.55,627.73 C319.25,628.52 319.00,630.25 319.00,631.58 ZM 750.00 621.52 C745.33,622.87 739.36,624.63 736.75,625.44 C734.14,626.24 732.00,626.57 732.00,626.17 C732.00,625.76 734.36,623.10 737.25,620.25 C742.14,615.42 743.62,614.67 759.00,609.17 C788.60,598.60 810.59,588.30 836.53,572.88 C877.68,548.41 900.31,524.06 900.27,504.29 C900.27,500.56 899.54,495.57 898.66,493.22 C892.66,477.12 870.54,456.64 837.82,436.88 C825.73,429.58 775.53,404.03 770.36,402.55 C768.46,402.00 767.85,402.82 765.02,409.72 C759.35,423.54 750.75,442.00 749.98,442.00 C749.57,442.00 748.53,440.92 747.66,439.61 C746.80,438.30 743.59,434.51 740.53,431.20 L 734.96 425.19 L 741.60 412.84 C745.26,406.05 749.09,399.28 750.12,397.79 C751.16,396.30 752.00,394.81 752.00,394.48 C752.00,393.46 743.17,389.87 723.50,382.90 L 704.50 376.17 L 704.22 361.47 L 703.95 346.77 L 706.64 347.45 C716.92,350.03 759.89,366.48 782.17,376.37 C863.81,412.61 911.38,449.71 920.61,484.36 C923.58,495.53 921.93,509.28 916.27,520.46 C908.73,535.35 890.56,553.87 870.00,567.62 C838.53,588.67 792.97,609.14 750.00,621.52 ZM 330.69 864.52 C295.37,869.54 267.37,861.87 247.86,841.83 C233.89,827.48 224.00,805.32 218.70,776.50 C216.72,765.70 216.50,761.30 216.54,732.50 C216.58,705.34 216.92,698.08 218.77,684.50 C222.09,660.08 223.97,651.00 225.67,651.00 C226.85,651.00 230.54,652.50 231.76,653.48 C231.90,653.59 231.13,659.72 230.04,667.09 C226.85,688.70 225.68,707.06 226.32,725.50 C228.30,782.96 246.31,818.46 279.00,829.38 C290.16,833.10 299.05,834.27 310.50,833.50 C348.71,830.95 398.99,812.51 458.86,779.09 L 475.22 769.95 L 479.36 772.33 C481.64,773.63 489.03,777.87 495.78,781.73 L 508.06 788.77 L 493.78 797.26 C462.01,816.15 424.45,834.79 394.50,846.52 C369.82,856.19 350.06,861.76 330.69,864.52 ZM 650.77 585.49 C634.10,589.42 614.95,584.72 600.23,573.09 C593.11,567.46 592.19,565.50 595.16,562.31 C596.45,560.94 599.97,558.34 603.00,556.53 C614.79,549.50 630.38,539.87 633.03,537.98 C634.56,536.89 636.27,536.00 636.82,536.00 C638.17,536.00 640.99,540.67 650.06,557.94 C654.24,565.88 658.17,572.56 658.80,572.77 C660.32,573.27 658.44,568.26 649.02,546.74 C643.74,534.65 640.96,529.42 639.70,529.18 C638.71,528.99 631.96,532.40 624.70,536.77 C598.44,552.56 592.29,556.00 590.34,556.00 C583.27,556.00 575.90,534.74 577.39,518.67 C578.75,504.04 586.79,487.62 596.81,479.03 C607.90,469.52 622.34,464.53 638.50,464.65 C649.54,464.72 658.38,466.64 666.38,470.69 L 671.40 473.24 L 673.77 470.37 C681.55,460.93 684.21,458.00 684.97,458.00 C685.45,458.00 688.30,460.25 691.30,462.99 C697.21,468.40 700.47,473.93 699.52,476.95 C699.19,477.99 695.58,481.50 691.50,484.74 C687.42,487.99 677.01,497.50 668.35,505.89 C656.15,517.72 652.94,521.35 654.06,522.06 C654.85,522.56 666.36,522.98 679.64,522.98 C681.39,522.99 683.02,522.98 684.53,522.98 C698.48,522.97 702.97,522.97 704.39,525.05 C705.07,526.04 705.05,527.51 705.01,529.67 C705.01,530.16 705.00,530.69 705.00,531.26 C705.00,538.87 701.30,551.23 697.06,557.77 C693.00,564.05 682.73,574.00 680.32,574.00 C677.72,574.00 673.85,568.85 663.69,551.88 C653.64,535.11 649.50,529.16 648.55,530.12 C648.01,530.66 655.01,548.81 662.86,567.20 C665.14,572.53 667.00,577.36 667.00,577.93 C667.00,579.53 657.73,583.85 650.77,585.49 ZM 714.15 671.44 C704.60,673.95 696.43,676.00 695.98,676.00 C695.53,676.00 696.45,673.41 698.03,670.25 C701.58,663.14 704.00,654.08 704.00,647.90 C704.00,643.58 704.21,643.19 706.75,642.76 C710.80,642.07 739.53,633.51 754.50,628.52 C774.02,622.03 804.57,610.04 811.70,606.08 C812.69,605.53 818.47,602.64 824.55,599.66 C855.23,584.60 883.19,565.73 900.90,548.14 C920.08,529.09 928.38,512.38 928.31,493.00 C928.25,477.23 922.26,462.85 908.96,446.48 C886.77,419.19 836.11,386.82 775.50,361.22 C751.31,351.00 745.76,348.88 717.00,338.85 L 704.50 334.49 L 704.19 330.74 C704.02,328.68 704.04,327.00 704.23,327.00 C705.21,327.00 735.27,337.42 747.24,341.91 C777.08,353.09 824.46,375.51 850.00,390.51 C930.03,437.55 958.54,489.08 932.99,540.50 C930.26,546.00 925.65,553.65 922.76,557.50 C888.38,603.22 809.18,646.48 714.15,671.44 ZM 325.93 670.25 C328.40,675.11 328.59,675.99 327.18,675.93 C319.75,675.63 253.75,654.67 235.00,646.65 C178.38,622.45 144.95,601.90 116.89,574.02 C99.06,556.32 89.55,541.10 84.26,521.80 C81.87,513.11 81.98,493.90 84.46,485.00 C87.00,475.86 93.84,461.76 99.79,453.40 C116.13,430.44 147.70,405.02 185.00,384.81 C216.78,367.58 238.37,357.60 273.50,343.85 C292.94,336.25 317.88,327.51 318.39,328.12 C318.57,328.33 318.97,329.85 319.28,331.50 L 319.84 334.50 L 301.67 340.89 C271.55,351.48 241.04,364.49 210.50,379.75 C171.19,399.40 147.47,415.02 126.63,435.00 C72.60,486.77 90.41,537.97 180.36,589.46 C211.93,607.54 248.95,622.59 296.50,636.69 L 318.93 643.34 L 319.54 647.92 C320.68,656.39 322.99,664.46 325.93,670.25 ZM 438.29 325.34 L 442.40 328.00 L 510.95 327.98 C575.52,327.96 579.74,327.85 583.58,326.10 C591.77,322.39 594.44,315.83 593.81,301.00 C593.36,290.57 592.05,286.83 587.68,283.59 C585.11,281.68 583.13,281.46 565.27,281.00 L 545.67 280.50 L 544.41 274.30 C542.18,263.36 535.02,254.21 525.12,249.64 C521.49,247.97 518.57,247.51 511.50,247.51 C503.68,247.50 501.76,247.86 496.84,250.28 C487.31,254.96 479.82,265.34 478.44,275.77 L 477.77 280.82 L 458.05 281.16 L 438.34 281.50 L 434.68 284.29 C430.07,287.81 429.50,289.92 429.50,303.50 C429.50,313.21 429.78,314.98 431.84,318.59 C433.13,320.83 436.03,323.87 438.29,325.34 ZM 766.00 340.68 C766.00,340.86 765.66,340.98 765.25,340.96 C764.26,340.90 747.83,334.17 747.24,333.57 C746.99,333.32 748.17,328.48 749.88,322.81 C758.04,295.64 761.94,272.45 762.70,246.50 C763.46,220.31 760.30,203.97 751.99,191.10 C744.35,179.28 735.59,175.47 716.50,175.67 C702.95,175.82 690.04,178.64 671.00,185.63 C647.77,194.15 596.82,221.78 565.85,242.66 L 556.19 249.16 L 552.06 244.68 C549.79,242.22 545.71,238.69 542.99,236.85 C540.27,235.01 538.04,233.21 538.03,232.86 C537.98,231.70 571.74,210.87 594.42,198.06 C612.97,187.59 638.37,175.07 654.00,168.70 C680.00,158.10 696.41,153.99 715.63,153.25 C737.86,152.40 750.69,156.63 762.73,168.80 C770.07,176.22 776.92,189.12 779.99,201.32 C787.74,232.16 784.22,278.16 770.51,324.97 C768.03,333.44 766.00,340.51 766.00,340.68 ZM 268.87 337.36 C259.87,341.33 259.14,341.42 258.01,338.81 C253.68,328.84 245.47,292.64 242.39,270.00 C240.32,254.75 240.06,224.89 241.91,213.50 C245.00,194.38 251.88,179.14 262.00,168.96 C274.44,156.46 287.37,152.32 310.96,153.29 C325.65,153.90 336.38,156.13 354.50,162.33 C382.09,171.77 418.19,189.93 458.50,214.64 C472.45,223.19 486.00,231.99 486.00,232.49 C486.00,232.65 483.74,234.24 480.97,236.02 C478.20,237.80 474.03,241.43 471.70,244.09 L 467.46 248.94 L 456.48 241.38 C438.82,229.23 404.98,209.44 384.84,199.49 C329.47,172.13 292.86,167.91 275.70,186.91 C257.60,206.94 256.53,258.35 272.97,318.17 C277.48,334.60 277.55,335.00 275.62,335.00 C274.87,335.00 271.83,336.06 268.87,337.36 ZM 728.86 823.96 C718.64,825.24 712.96,825.15 702.00,823.52 C679.64,820.19 657.00,812.80 622.00,797.41 C595.49,785.75 533.48,752.06 507.50,735.19 C496.60,728.12 468.32,708.09 467.02,706.52 C466.07,705.37 466.49,705.00 469.34,704.46 C473.68,703.65 476.52,704.51 481.00,707.98 C484.07,710.36 506.61,725.59 509.63,727.32 C510.69,727.93 518.15,723.38 537.79,710.17 C545.48,704.99 546.55,704.57 552.79,704.24 L 559.50 703.88 L 557.00 705.92 C553.28,708.96 524.01,728.44 520.25,730.38 C518.46,731.30 517.00,732.22 517.00,732.43 C517.00,734.15 574.36,765.74 607.74,782.40 C660.85,808.90 703.84,820.78 727.59,815.52 C737.63,813.30 742.08,811.01 748.07,805.03 C756.26,796.83 762.42,782.18 765.70,763.04 C768.98,743.93 767.50,707.64 762.13,675.31 L 760.43 665.12 L 773.43 660.61 C780.59,658.13 786.56,656.22 786.70,656.37 C786.85,656.52 787.97,664.03 789.19,673.07 C792.14,694.99 792.41,737.20 789.68,752.00 C783.86,783.51 773.42,803.16 756.24,814.92 C751.04,818.48 737.86,822.83 728.86,823.96 ZM 331.50 822.03 C303.09,827.50 282.84,824.69 266.12,812.95 C258.33,807.48 252.90,801.23 247.42,791.42 C234.14,767.67 229.03,724.06 234.55,681.50 C236.62,665.57 238.20,656.00 238.78,656.00 C239.76,656.00 262.51,664.34 263.26,664.97 C263.67,665.32 263.13,671.44 262.05,678.56 C255.03,724.73 255.31,756.10 262.98,780.17 C273.53,813.32 293.43,822.36 336.31,813.51 C363.10,807.97 410.72,788.02 446.98,767.13 L 459.47 759.94 L 462.73 761.70 C464.53,762.66 466.00,763.69 465.99,763.98 C465.99,764.26 464.53,765.35 462.74,766.39 C411.55,796.30 366.99,815.19 331.50,822.03 ZM 788.59 340.35 C787.24,345.22 785.99,349.33 785.82,349.49 C785.12,350.13 768.51,342.31 768.70,341.44 C768.81,340.92 770.29,336.56 771.99,331.75 C776.24,319.70 782.41,295.01 784.92,280.00 C790.53,246.52 790.37,216.04 784.47,192.72 C783.60,189.30 780.65,181.87 777.90,176.20 C767.91,155.56 752.43,145.73 726.50,143.56 C716.00,142.68 699.19,144.94 682.76,149.45 C649.85,158.47 602.70,181.17 553.50,211.68 C549.10,214.41 541.40,219.18 536.40,222.29 C527.57,227.77 527.13,227.92 522.00,227.31 C519.75,227.05 518.18,226.99 518.00,226.46 C517.70,225.59 521.20,223.43 531.76,216.90 C532.92,216.19 534.17,215.42 535.50,214.59 C563.75,197.11 569.23,193.85 585.35,184.86 C626.33,162.03 664.24,146.13 693.00,139.72 C705.98,136.83 734.21,136.59 743.99,139.29 C755.81,142.55 764.75,147.75 773.56,156.50 C792.80,175.59 800.60,199.03 801.72,241.09 C802.56,273.15 798.30,305.44 788.59,340.35 ZM 254.79 342.14 C254.61,342.68 250.96,344.66 246.68,346.51 L 238.91 349.89 L 237.87 347.20 C235.51,341.05 230.00,317.49 227.62,303.38 C226.22,295.06 224.31,279.76 223.37,269.38 C221.92,253.20 221.84,248.00 222.83,233.00 C225.34,195.25 232.86,174.89 250.91,156.98 C261.07,146.90 269.93,142.03 283.62,139.01 C293.65,136.79 312.25,136.34 323.00,138.05 C358.66,143.73 407.23,164.71 463.50,198.75 C482.33,210.14 483.82,211.07 496.50,219.29 L 507.50 226.42 L 502.44 227.32 C497.73,228.16 497.05,228.01 492.94,225.25 C485.02,219.95 472.86,212.41 454.94,201.69 C355.53,142.23 289.85,128.43 258.04,160.32 C240.40,178.00 232.78,208.75 235.93,249.50 C237.97,275.88 242.30,298.56 250.51,325.82 C253.05,334.24 254.97,341.59 254.79,342.14 ZM 281.55 601.74 C280.61,604.62 279.54,607.17 279.16,607.40 C278.41,607.86 255.02,599.25 253.68,598.02 C252.75,597.16 261.91,573.03 270.97,552.50 C277.76,537.10 295.92,501.33 303.71,488.00 C312.60,472.78 317.49,465.06 318.25,465.03 C318.66,465.01 319.00,478.50 319.00,495.00 C319.00,520.53 318.78,525.00 317.55,525.00 C315.19,525.00 311.43,530.81 304.60,545.07 C298.48,557.82 285.21,590.45 281.55,601.74 ZM 571.29 746.28 C566.22,749.98 561.72,752.96 561.29,752.91 C559.77,752.73 531.50,736.02 531.68,735.41 C531.78,735.07 534.03,733.36 536.68,731.62 C551.12,722.11 564.22,713.06 569.75,708.79 L 576.00 703.96 L 624.33 704.50 L 612.91 714.09 C601.48,723.69 588.53,733.70 571.29,746.28 ZM 429.12 412.19 C426.44,415.20 425.75,415.43 419.37,415.58 C415.59,415.67 407.85,415.46 402.16,415.12 C395.79,414.74 392.24,414.60 390.30,412.76 C387.85,410.45 387.95,405.46 388.17,393.95 C388.17,393.58 388.18,393.21 388.19,392.84 C388.40,381.55 388.20,376.25 390.75,373.71 C393.28,371.20 398.49,371.40 409.47,371.18 C420.30,370.97 426.60,371.25 427.99,371.99 C429.99,373.06 429.74,373.49 422.89,380.81 C418.93,385.04 414.09,390.64 412.13,393.25 C410.17,395.86 408.05,398.00 407.40,398.00 C406.76,398.00 405.49,396.88 404.59,395.50 C403.69,394.12 402.09,393.00 401.03,393.00 C399.98,393.00 398.45,392.05 397.64,390.89 C396.82,389.73 395.70,389.07 395.14,389.41 C394.58,389.76 397.31,393.24 401.20,397.14 C406.43,402.36 408.50,403.87 409.07,402.86 C413.44,395.24 431.44,375.54 433.11,376.57 C434.32,377.31 434.24,380.73 433.00,381.50 C432.41,381.86 432.00,387.67 432.00,395.54 C432.00,408.93 431.99,408.98 429.12,412.19 ZM 429.08 562.08 L 426.15 565.00 L 409.53 565.00 C393.22,565.00 392.86,564.95 390.45,562.55 C388.04,560.13 388.00,559.80 388.00,543.16 C388.00,541.72 387.99,540.37 387.99,539.12 C387.95,530.35 387.93,525.94 390.12,523.69 C392.35,521.42 396.83,521.36 405.87,521.25 C407.15,521.23 408.51,521.21 409.98,521.19 C422.45,520.97 428.57,521.23 429.50,522.00 C430.60,522.91 429.43,524.50 423.47,530.16 C419.40,534.02 414.39,539.39 412.33,542.09 C410.27,544.79 408.14,547.00 407.59,547.00 C407.04,547.00 404.99,545.48 403.04,543.63 C399.74,540.48 393.98,537.99 394.02,539.73 C394.03,540.15 397.37,543.54 401.45,547.26 C407.54,552.81 408.96,553.70 409.44,552.26 C409.76,551.29 413.61,546.45 418.01,541.50 C422.41,536.55 427.25,530.83 428.76,528.79 C430.27,526.75 431.79,525.06 432.14,525.04 C433.34,524.97 434.12,530.28 433.06,531.34 C432.42,531.98 432.00,537.72 432.00,545.78 L 432.00 559.15 ZM 429.25 486.94 L 426.50 489.90 L 411.00 490.48 C394.47,491.10 391.39,490.47 389.03,486.05 C388.45,484.97 388.00,477.14 388.00,468.12 C388.00,452.64 388.08,452.02 390.41,449.31 L 392.83 446.50 L 410.66 446.83 C420.47,447.01 428.85,447.49 429.27,447.90 C430.12,448.71 408.10,472.05 406.50,472.02 C405.95,472.01 404.24,470.42 402.71,468.50 C400.57,465.82 399.17,465.00 396.73,465.00 L 393.55 465.00 L 400.50 472.00 C404.32,475.85 407.70,479.00 408.01,479.00 C408.32,479.00 410.90,475.74 413.76,471.75 C416.61,467.76 421.88,461.59 425.47,458.03 C429.06,454.47 432.00,450.98 432.00,450.28 C432.00,449.58 432.45,449.00 433.00,449.00 C433.55,449.00 434.00,450.55 434.00,452.44 C434.00,454.33 433.55,456.16 433.00,456.50 C432.41,456.86 432.00,462.67 432.00,470.54 C432.00,483.80 431.97,484.01 429.25,486.94 ZM 248.04 588.25 C246.83,591.96 245.54,594.95 245.17,594.89 C243.09,594.56 239.00,592.49 239.00,591.77 C239.00,589.96 250.59,559.76 256.75,545.50 C266.00,524.12 284.50,487.57 292.43,475.00 C293.65,473.08 297.69,466.33 301.42,460.00 C305.15,453.67 310.52,445.02 313.35,440.78 C318.35,433.28 318.52,433.13 319.29,435.78 C320.75,440.86 319.17,444.82 308.71,462.17 C292.86,488.48 284.53,503.60 274.95,523.44 C266.44,541.07 252.46,574.74 248.04,588.25 ZM 531.00 648.65 C531.00,649.76 538.56,649.99 574.25,649.93 C598.04,649.90 616.60,649.49 615.50,649.04 C614.40,648.59 609.67,646.99 605.00,645.49 C590.88,640.95 577.55,633.62 564.80,623.38 C561.12,620.42 557.68,618.00 557.16,618.00 C556.64,618.00 552.68,622.61 548.37,628.25 C544.05,633.89 538.38,640.48 535.76,642.90 C533.14,645.32 531.00,647.91 531.00,648.65 ZM 431.01 670.51 C432.74,672.59 433.92,672.38 436.13,669.57 C437.91,667.30 458.64,651.22 488.00,629.33 C494.88,624.21 502.82,617.98 505.66,615.49 C508.51,613.00 512.50,610.27 514.55,609.41 L 518.27 607.86 L 522.12 611.61 C527.07,616.45 528.20,615.34 523.96,609.80 C519.51,603.97 514.91,600.05 512.50,600.05 C511.40,600.05 504.61,604.65 497.42,610.27 C490.22,615.90 478.15,625.22 470.60,631.00 C443.56,651.69 436.46,657.23 433.76,659.77 C430.59,662.76 429.17,668.29 431.01,670.51 ZM 311.33 435.77 C308.12,440.81 305.27,444.95 305.00,444.96 C304.73,444.98 303.67,443.53 302.64,441.74 C298.42,434.36 280.24,399.34 279.63,397.43 C279.05,395.59 280.00,394.95 288.18,391.70 C293.23,389.69 297.50,388.17 297.67,388.33 C297.83,388.50 301.32,395.57 305.43,404.06 C309.54,412.55 313.86,421.10 315.03,423.05 L 317.16 426.60 ZM 583.75 323.13 C580.02,325.03 577.78,325.08 512.70,324.86 C475.74,324.73 444.54,324.46 443.37,324.26 C442.19,324.06 439.38,322.31 437.12,320.37 C433.25,317.06 433.00,316.53 433.07,311.67 L 433.14 306.50 L 434.57 310.50 C435.36,312.70 437.16,315.51 438.56,316.75 L 441.11 319.00 L 509.99 319.00 C552.32,319.00 579.86,318.62 581.43,318.02 C586.08,316.26 587.99,311.55 588.00,301.83 C588.00,293.54 587.88,293.08 585.25,291.12 L 582.50 289.06 L 585.05 289.03 C589.49,288.98 590.00,290.50 590.00,303.65 C590.00,317.81 589.18,320.36 583.75,323.13 ZM 599.49 387.12 C557.20,388.18 482.31,388.72 466.30,388.10 C450.97,387.50 447.10,386.50 449.74,383.86 C451.66,381.94 466.89,381.72 547.36,382.50 C618.40,383.18 625.07,383.38 624.79,384.87 C624.51,386.30 621.47,386.57 599.49,387.12 ZM 677.73 392.75 C678.66,393.46 679.77,393.63 680.25,393.15 C680.73,392.67 680.98,376.13 680.81,356.39 L 680.50 320.50 L 677.75 315.29 C672.27,304.90 665.36,299.11 655.29,296.49 C648.21,294.64 604.55,294.31 603.45,296.09 C601.67,298.97 605.43,299.51 630.80,300.00 C659.92,300.58 661.36,300.92 668.33,309.07 C675.64,317.61 675.47,316.55 675.78,356.00 C676.03,387.74 676.24,391.63 677.73,392.75 ZM 183.47 351.49 C181.94,355.07 180.38,358.00 179.98,358.00 C179.59,358.00 178.30,355.41 177.12,352.25 C174.19,344.40 172.15,342.30 164.27,338.97 C160.55,337.40 157.50,335.84 157.50,335.51 C157.50,335.17 160.14,333.82 163.37,332.51 C171.00,329.41 173.29,327.13 176.59,319.39 C178.08,315.87 179.60,313.00 179.97,313.00 C180.33,313.00 181.67,315.51 182.94,318.57 C186.20,326.44 189.04,329.37 196.46,332.52 C200.03,334.04 202.73,335.63 202.46,336.06 C202.19,336.49 199.72,337.60 196.96,338.51 C189.91,340.86 186.66,343.98 183.47,351.49 ZM 842.44 343.40 C842.07,344.84 841.38,346.27 840.89,346.57 C840.01,347.11 839.66,346.41 836.89,338.58 C834.94,333.07 830.94,329.48 824.32,327.27 C817.85,325.12 816.56,323.39 820.68,322.39 C829.77,320.20 835.31,315.20 838.35,306.41 C839.76,302.33 841.99,300.66 842.01,303.67 C842.03,307.03 846.73,315.67 849.69,317.78 C851.30,318.93 854.61,320.64 857.06,321.58 C862.75,323.78 863.82,324.77 861.42,325.58 C860.36,325.94 856.77,327.47 853.42,328.98 C848.22,331.34 847.04,332.38 845.22,336.26 C844.05,338.74 842.80,341.96 842.44,343.40 ZM 571.26 403.62 C566.17,404.60 551.54,404.90 512.00,404.81 C461.40,404.70 456.37,404.59 451.09,403.42 C448.83,402.92 448.79,402.78 450.38,401.19 C451.93,399.64 457.01,399.50 511.79,399.53 C578.55,399.56 588.65,400.25 571.26,403.62 ZM 518.51 288.56 C516.75,289.90 514.00,291.00 512.41,291.00 C505.49,290.99 497.94,283.94 498.06,277.60 C498.26,266.37 507.32,260.18 517.39,264.39 C520.93,265.87 525.00,272.57 525.00,276.91 C525.00,280.52 522.01,285.89 518.51,288.56 ZM 535.90 184.25 C535.18,186.31 534.35,187.98 534.05,187.96 C533.75,187.94 532.05,184.77 530.28,180.92 C526.84,173.45 527.82,174.22 515.00,168.84 C512.57,167.82 512.64,167.73 517.50,165.82 C525.38,162.71 528.55,159.74 531.16,153.02 C532.44,149.71 533.72,147.00 533.99,147.01 C534.27,147.01 535.90,150.11 537.62,153.90 C540.67,160.63 540.90,160.87 547.96,164.28 C551.93,166.20 554.77,168.02 554.27,168.33 C553.78,168.64 550.79,169.85 547.64,171.03 C541.53,173.32 538.52,176.71 535.90,184.25 ZM 739.49 409.01 C735.91,416.16 732.65,421.99 732.24,421.97 C731.83,421.96 729.92,420.59 728.00,418.94 C726.08,417.29 722.59,414.58 720.26,412.93 L 716.02 409.92 L 721.48 399.04 L 726.94 388.16 L 736.43 391.33 C741.66,393.07 745.95,394.84 745.97,395.26 C745.98,395.68 743.07,401.87 739.49,409.01 ZM 524.50 462.08 C520.96,463.65 491.15,464.16 467.21,463.06 C454.75,462.48 451.61,462.04 450.21,460.64 C448.71,459.14 448.69,458.81 450.00,457.98 C451.88,456.79 530.67,456.66 531.41,457.85 C531.91,458.66 531.14,459.14 524.50,462.08 ZM 584.36 521.32 C585.34,525.21 586.62,523.89 587.38,518.23 C588.38,510.67 594.00,500.14 601.08,492.58 C608.87,484.25 617.38,479.68 631.94,476.01 C637.68,474.57 642.53,472.90 642.73,472.31 C643.30,470.60 632.65,469.72 626.60,470.98 C618.95,472.57 611.32,475.50 606.91,478.56 C600.63,482.92 592.41,492.25 589.11,498.78 C585.69,505.55 583.28,517.00 584.36,521.32 ZM 671.47 759.46 C667.83,760.85 666.37,762.18 664.08,766.18 L 661.24 771.16 L 658.87 766.83 C657.10,763.60 655.14,761.81 651.14,759.79 L 645.78 757.07 L 649.90 755.43 C654.38,753.63 658.65,749.23 659.61,745.42 C660.48,741.96 661.30,742.39 663.82,747.57 C665.63,751.29 666.98,752.56 671.00,754.32 C673.72,755.52 675.96,756.78 675.98,757.11 C675.99,757.45 673.96,758.51 671.47,759.46 ZM 402.50 538.04 C404.70,540.21 407.00,541.99 407.60,541.99 C408.86,542.00 421.00,528.35 421.00,526.93 C421.00,526.40 415.33,526.00 407.97,526.00 C397.30,526.00 394.83,526.27 394.36,527.50 C393.41,529.97 394.89,534.00 396.77,534.05 C397.72,534.08 400.30,535.87 402.50,538.04 ZM 785.22 592.16 C784.82,592.54 783.27,593.16 781.77,593.53 C781.59,593.58 781.42,593.62 781.26,593.66 C780.69,593.82 780.26,593.93 779.87,593.85 C778.51,593.56 777.67,590.83 773.46,578.74 C771.59,573.38 769.62,568.15 769.08,567.14 C768.38,565.84 768.58,563.78 769.74,560.15 C771.46,554.74 772.41,553.84 773.30,556.75 C773.59,557.71 776.55,565.92 779.88,574.98 C783.21,584.04 785.62,591.77 785.22,592.16 ZM 758.70 602.60 C749.22,605.83 748.35,605.73 751.37,601.75 C753.95,598.35 761.23,584.19 762.48,580.15 C762.92,578.71 763.56,578.16 764.12,578.72 C765.08,579.68 771.25,597.12 770.77,597.51 C769.53,598.52 764.59,600.60 758.70,602.60 ZM 404.39 390.26 L 407.50 393.02 L 413.75 386.31 C417.19,382.61 420.00,379.32 420.00,378.98 C420.00,378.21 396.94,376.14 395.25,376.76 C392.76,377.67 393.97,381.63 397.64,384.58 C399.64,386.18 402.68,388.74 404.39,390.26 ZM 405.25 465.59 C406.33,466.97 407.56,467.96 407.97,467.80 C408.38,467.63 411.52,464.24 414.95,460.25 L 421.18 453.00 L 410.59 452.81 C404.76,452.71 398.76,452.60 397.25,452.56 C394.97,452.51 394.45,452.97 394.18,455.25 C393.93,457.46 394.27,458.00 395.93,458.00 C397.07,458.00 398.00,458.60 398.00,459.34 C398.00,460.08 399.19,461.22 400.64,461.88 C402.09,462.54 404.16,464.21 405.25,465.59 ZM 308.88 274.00 C307.11,276.20 305.34,278.00 304.95,278.00 C304.56,278.00 303.01,276.40 301.52,274.44 C300.03,272.48 297.61,270.41 296.15,269.84 C293.61,268.84 293.58,268.75 295.48,267.65 C298.93,265.64 304.00,260.26 304.00,258.60 C304.00,255.91 305.54,256.81 307.31,260.53 C308.24,262.48 310.57,265.00 312.50,266.13 C315.88,268.13 316.36,270.00 313.49,270.00 C312.72,270.00 310.65,271.80 308.88,274.00 ZM 526.07 601.57 C527.86,603.42 529.81,604.63 530.41,604.26 C533.22,602.57 544.00,593.74 543.97,593.16 C543.96,592.80 542.70,591.00 541.18,589.16 L 538.40 585.82 L 534.31 589.16 C532.05,591.00 528.55,593.79 526.52,595.36 L 522.83 598.22 ZM 652.02 499.25 C651.98,500.72 652.81,499.93 657.00,494.50 C659.33,491.48 664.16,486.64 667.73,483.75 C673.49,479.08 673.95,478.46 671.86,478.16 C670.56,477.97 668.83,477.22 668.00,476.48 C667.17,475.75 665.23,475.00 663.68,474.82 C663.48,474.80 663.30,474.78 663.12,474.75 C662.60,474.68 662.20,474.62 661.83,474.72 C660.43,475.08 659.62,477.66 655.13,490.00 C653.43,494.67 652.03,498.84 652.02,499.25 ZM 655.84 531.18 C657.30,532.20 661.81,532.39 675.83,532.00 C691.31,531.57 694.18,531.25 695.68,529.75 C697.35,528.08 696.42,528.00 676.27,528.00 C664.28,528.00 654.87,528.40 654.54,528.93 C654.23,529.44 654.81,530.46 655.84,531.18 ZM 519.08 840.08 C515.67,843.49 515.25,843.56 511.97,841.30 C509.00,839.25 507.08,836.92 507.03,835.33 C506.98,833.27 512.10,828.00 514.17,828.00 C516.57,828.00 522.00,833.20 522.00,835.50 C522.00,836.41 520.68,838.47 519.08,840.08 ZM 790.74 463.48 C788.07,467.56 785.06,468.32 781.12,465.93 C776.53,463.13 776.13,460.17 779.89,456.81 C783.99,453.14 787.16,453.21 790.39,457.05 L 792.95 460.10 ZM 346.44 245.78 C344.50,248.55 340.65,248.65 338.00,246.00 C335.45,243.45 335.46,240.95 338.04,238.19 C340.52,235.52 344.12,235.37 346.35,237.83 C348.42,240.12 348.45,242.91 346.44,245.78 ZM 258.08 459.30 C256.93,462.32 254.11,463.14 250.79,461.40 C245.37,458.56 247.19,453.00 253.54,453.00 C257.63,453.00 259.49,455.58 258.08,459.30 ZM 531.00 608.80 C531.00,610.66 531.46,610.41 540.04,603.85 C545.55,599.64 547.77,597.37 547.07,596.67 C546.36,595.96 545.20,596.09 543.37,597.07 C539.76,599.00 531.00,607.31 531.00,608.80 ZM 508.86 281.06 C510.16,282.13 511.62,283.00 512.11,283.00 C513.26,283.00 517.00,279.27 517.00,278.12 C517.00,274.77 509.54,274.12 507.60,277.31 C506.71,278.79 506.94,279.49 508.86,281.06 ZM 304.43 605.43 C301.54,608.31 298.00,606.60 298.00,602.32 C298.00,599.58 302.20,598.09 304.51,600.01 C306.43,601.60 306.40,603.46 304.43,605.43 ZM 632.00 738.06 C632.00,739.55 630.00,739.15 629.38,737.55 C628.68,735.73 629.70,734.00 631.45,734.00 C632.19,734.00 633.05,733.33 633.36,732.50 C633.68,731.67 635.11,731.00 636.54,731.00 C638.78,731.00 639.09,731.37 638.82,733.75 C638.55,736.04 637.96,736.55 635.25,736.81 C633.46,736.99 632.00,737.55 632.00,738.06 ZM 876.80 364.80 C876.14,365.46 875.10,366.00 874.50,366.00 C871.06,366.00 869.65,359.56 872.86,358.54 C877.10,357.20 879.92,361.68 876.80,364.80 ZM 209.50 652.50 C209.50,654.98 209.05,655.55 206.91,655.80 C203.74,656.17 201.60,653.84 202.50,650.99 C203.03,649.34 203.85,648.95 206.34,649.19 C209.12,649.46 209.50,649.86 209.50,652.50 ZM 221.07 467.96 C218.57,469.30 217.67,469.27 216.20,467.80 C214.16,465.76 214.81,463.09 217.51,462.41 C222.05,461.27 224.99,465.86 221.07,467.96 ZM 151.30 374.89 C149.88,377.14 147.53,377.39 145.62,375.48 C143.42,373.27 145.17,370.00 148.57,370.00 C151.42,370.00 152.81,372.49 151.30,374.89 ZM 710.07 737.42 C709.35,738.29 707.97,739.00 707.00,739.00 C706.03,739.00 704.65,738.29 703.93,737.42 C702.18,735.30 703.93,732.50 707.00,732.50 C710.07,732.50 711.82,735.30 710.07,737.42 ZM 479.34 858.83 C477.96,861.01 476.71,861.24 474.60,859.70 C471.96,857.77 472.93,854.57 476.26,854.18 C479.36,853.83 480.97,856.24 479.34,858.83 ZM 464.34 172.83 C462.96,175.01 461.71,175.24 459.60,173.70 C456.96,171.77 457.93,168.57 461.26,168.18 C464.36,167.83 465.97,170.24 464.34,172.83 ZM 560.34 137.83 C558.96,140.01 557.71,140.24 555.60,138.70 C552.96,136.77 553.93,133.57 557.26,133.18 C560.36,132.83 561.97,135.24 560.34,137.83 ZM 319.07 565.38 C319.14,571.85 318.98,577.35 318.73,577.61 C318.47,577.86 317.94,572.62 317.54,565.96 C316.88,554.98 317.12,551.78 318.47,553.14 C318.73,553.40 319.00,558.91 319.07,565.38 ZM 820.50 483.00 C820.50,484.97 819.93,485.57 817.82,485.81 C815.97,486.02 814.81,485.51 814.09,484.16 C812.77,481.71 814.84,479.70 818.19,480.17 C819.90,480.41 820.50,481.15 820.50,483.00 ZM 500.80 196.80 C499.19,198.41 498.60,198.32 496.65,196.17 C494.54,193.83 494.57,193.30 496.93,192.04 C500.77,189.98 503.84,193.76 500.80,196.80 ZM 830.82 658.75 C830.46,661.89 827.10,663.03 825.15,660.67 C823.28,658.42 824.85,656.00 828.17,656.00 C830.81,656.00 831.10,656.30 830.82,658.75 ZM 374.37 740.77 C372.86,743.16 371.55,743.27 369.63,741.14 C368.04,739.39 368.03,739.11 369.52,737.62 C371.55,735.59 372.41,735.59 374.07,737.58 C375.00,738.70 375.09,739.64 374.37,740.77 ZM 777.94 430.11 C776.95,431.96 773.99,432.65 772.67,431.33 C771.28,429.94 772.08,427.11 774.05,426.48 C776.97,425.56 779.24,427.68 777.94,430.11 ZM 809.00 350.50 C809.00,352.51 808.50,353.00 806.47,353.00 C803.88,353.00 802.31,350.93 803.47,349.05 C803.83,348.47 805.22,348.00 806.56,348.00 C808.50,348.00 809.00,348.52 809.00,350.50 ZM 574.00 843.52 C574.00,845.47 571.40,846.02 569.35,844.49 C567.61,843.20 567.60,843.02 569.20,841.40 C570.61,839.97 571.17,839.89 572.45,840.96 C573.30,841.67 574.00,842.82 574.00,843.52 ZM 781.50 507.00 C781.84,507.55 781.44,508.00 780.62,508.00 C779.79,508.00 778.84,507.55 778.50,507.00 C778.16,506.45 778.56,506.00 779.38,506.00 C780.21,506.00 781.16,506.45 781.50,507.00 Z" fill="rgb(29,29,29)"/>
<path d="M 533.63 462.26 C534.20,460.53 533.71,460.37 532.48,460.20 C531.29,460.03 528.34,460.65 525.91,461.56 C525.64,461.66 525.33,461.76 525.00,461.86 C523.52,462.29 521.46,462.65 518.88,462.94 C513.37,463.39 504.56,463.64 494.72,463.65 C490.75,463.77 486.12,463.68 481.20,463.51 C485.78,463.61 490.35,463.65 494.72,463.65 C503.99,463.35 509.63,461.82 506.90,457.06 C483.37,456.90 451.19,457.22 450.00,457.98 C451.37,457.12 482.73,456.83 506.90,457.06 C517.16,457.14 525.78,457.30 529.48,457.56 C532.59,457.71 534.49,457.89 534.70,458.10 C535.31,458.71 536.27,458.08 537.99,455.85 C536.58,457.72 535.44,459.00 535.13,459.00 C534.69,459.00 534.31,459.56 534.28,460.25 C534.27,460.51 534.03,461.23 533.63,462.26 ZM 516.71 651.19 C518.61,649.78 520.21,648.57 520.97,647.97 C523.76,645.74 525.49,645.38 524.36,647.25 C523.95,647.94 521.48,651.26 518.87,654.64 C516.28,658.00 514.40,661.00 514.68,661.35 C514.68,661.34 514.68,661.34 514.68,661.34 C514.36,661.02 515.38,659.13 516.95,657.13 C519.91,653.36 521.73,648.97 520.32,649.04 C519.95,649.05 518.69,649.81 516.71,651.19 ZM 532.32 465.43 C531.79,466.64 531.18,467.98 530.54,469.34 C527.34,476.15 526.69,476.96 525.62,475.50 C526.68,476.93 527.38,476.01 530.74,468.83 C531.36,467.49 531.89,466.37 532.32,465.43 ZM 532.32 465.43 C532.84,464.22 533.29,463.13 533.63,462.26 C533.39,463.00 532.96,464.01 532.32,465.43 ZM 490.38 671.58 C485.10,675.86 480.53,679.52 476.57,682.61 C480.53,679.52 485.10,675.86 490.38,671.58 C491.50,670.67 492.64,669.75 493.79,668.82 C492.68,669.72 491.54,670.64 490.38,671.58 ZM 539.79 453.35 C539.11,454.34 538.52,455.17 537.99,455.85 C538.56,455.10 539.17,454.25 539.79,453.35 Z" fill="rgb(102,102,102)"/>
<path d="M 557.90 502.25 C557.85,502.94 557.44,504.62 557.00,506.00 C556.29,508.23 556.19,508.10 556.10,504.75 C556.04,502.69 556.45,501.00 557.00,501.00 C557.55,501.00 557.96,501.56 557.90,502.25 ZM 494.72 463.65 C504.56,463.64 513.37,463.39 518.88,462.94 C510.80,463.85 497.64,464.06 481.20,463.51 C486.13,463.68 490.75,463.77 494.72,463.65 Z" fill="rgb(173,173,172)"/>
<path d="M 0.00 512.00 L 0.00 0.00 L 512.00 0.00 L 1024.00 0.00 L 1024.00 512.00 L 1024.00 1024.00 L 512.00 1024.00 L 0.00 1024.00 L 0.00 512.00 ZM 330.69 864.52 C350.06,861.76 369.82,856.19 394.50,846.52 C424.45,834.79 462.01,816.15 493.78,797.26 L 508.06 788.77 L 495.78 781.73 C489.03,777.87 481.64,773.63 479.36,772.33 L 475.22 769.95 L 458.86 779.09 C398.99,812.51 348.71,830.95 310.50,833.50 C299.05,834.27 290.16,833.10 279.00,829.38 C246.31,818.46 228.30,782.96 226.32,725.50 C225.68,707.06 226.85,688.70 230.04,667.09 C231.13,659.72 231.90,653.59 231.76,653.48 C230.54,652.50 226.85,651.00 225.67,651.00 C223.97,651.00 222.09,660.08 218.77,684.50 C216.92,698.08 216.58,705.34 216.54,732.50 C216.50,761.30 216.72,765.70 218.70,776.50 C224.00,805.32 233.89,827.48 247.86,841.83 C267.37,861.87 295.37,869.54 330.69,864.52 ZM 733.34 864.45 C760.31,859.73 779.62,844.79 792.79,818.46 C806.55,790.96 811.90,748.08 807.52,700.48 C805.55,679.08 801.80,652.91 800.46,651.19 C800.32,651.02 798.54,651.58 796.50,652.44 C793.05,653.88 792.82,654.23 793.35,657.25 C796.27,673.68 797.50,691.53 797.49,717.50 C797.48,742.09 797.21,747.00 795.25,757.83 C790.61,783.44 782.38,801.56 769.50,814.48 C749.37,834.67 722.67,838.49 678.86,827.45 C651.37,820.52 615.52,805.17 562.00,777.42 C527.30,759.43 506.04,746.39 473.58,723.22 L 454.66 709.72 L 446.08 709.58 C438.86,709.46 436.67,709.00 432.28,706.72 C427.36,704.15 426.31,704.00 413.56,704.00 L 400.04 704.00 L 404.27 707.85 C412.85,715.65 440.32,736.91 460.12,751.07 C487.75,770.83 521.40,792.00 551.17,808.35 C587.65,828.40 629.92,847.58 655.00,855.47 C684.86,864.86 712.71,868.06 733.34,864.45 ZM 479.34 858.83 C480.97,856.24 479.36,853.83 476.26,854.18 C472.93,854.57 471.96,857.77 474.60,859.70 C476.71,861.24 477.96,861.01 479.34,858.83 ZM 574.00 843.52 C574.00,842.82 573.30,841.67 572.45,840.96 C571.17,839.89 570.61,839.97 569.20,841.40 C567.60,843.02 567.61,843.20 569.35,844.49 C571.40,846.02 574.00,845.47 574.00,843.52 ZM 519.08 840.08 C520.68,838.47 522.00,836.41 522.00,835.50 C522.00,833.20 516.57,828.00 514.17,828.00 C512.10,828.00 506.98,833.27 507.03,835.33 C507.08,836.92 509.00,839.25 511.97,841.30 C515.25,843.56 515.67,843.49 519.08,840.08 ZM 331.50 822.03 C366.99,815.19 411.55,796.30 462.74,766.39 C464.53,765.35 465.99,764.26 465.99,763.98 C466.00,763.69 464.53,762.66 462.73,761.70 L 459.47 759.94 L 446.98 767.13 C410.72,788.02 363.10,807.97 336.31,813.51 C293.43,822.36 273.53,813.32 262.98,780.17 C255.31,756.10 255.03,724.73 262.05,678.56 C263.13,671.44 263.67,665.32 263.26,664.97 C262.51,664.34 239.76,656.00 238.78,656.00 C238.20,656.00 236.62,665.57 234.55,681.50 C229.03,724.06 234.14,767.67 247.42,791.42 C252.90,801.23 258.33,807.48 266.12,812.95 C282.84,824.69 303.09,827.50 331.50,822.03 ZM 728.86 823.96 C737.86,822.83 751.04,818.48 756.24,814.92 C773.42,803.16 783.86,783.51 789.68,752.00 C792.41,737.20 792.14,694.99 789.19,673.07 C787.97,664.03 786.85,656.52 786.70,656.37 C786.56,656.22 780.59,658.13 773.43,660.61 L 760.43 665.12 L 762.13 675.31 C767.50,707.64 768.98,743.93 765.70,763.04 C762.42,782.18 756.26,796.83 748.07,805.03 C742.08,811.01 737.63,813.30 727.59,815.52 C703.84,820.78 660.85,808.90 607.74,782.40 C574.36,765.74 517.00,734.15 517.00,732.43 C517.00,732.22 518.46,731.30 520.25,730.38 C524.01,728.44 553.28,708.96 557.00,705.92 L 559.50 703.88 L 552.79 704.24 C546.55,704.57 545.48,704.99 537.79,710.17 C518.15,723.38 510.69,727.93 509.63,727.32 C506.61,725.59 484.07,710.36 481.00,707.98 C476.52,704.51 473.68,703.65 469.34,704.46 C466.49,705.00 466.07,705.37 467.02,706.52 C468.32,708.09 496.60,728.12 507.50,735.19 C533.48,752.06 595.49,785.75 622.00,797.41 C657.00,812.80 679.64,820.19 702.00,823.52 C712.96,825.15 718.64,825.24 728.86,823.96 ZM 671.47 759.46 C673.96,758.51 675.99,757.45 675.98,757.11 C675.96,756.78 673.72,755.52 671.00,754.32 C666.98,752.56 665.63,751.29 663.82,747.57 C661.30,742.39 660.48,741.96 659.61,745.42 C658.65,749.23 654.38,753.63 649.90,755.43 L 645.78 757.07 L 651.14 759.79 C655.14,761.81 657.10,763.60 658.87,766.83 L 661.24 771.16 L 664.08 766.18 C666.37,762.18 667.83,760.85 671.47,759.46 ZM 571.29 746.28 C588.53,733.70 601.48,723.69 612.91,714.09 L 624.33 704.50 L 600.17 704.23 L 576.00 703.96 L 569.75 708.79 C564.22,713.06 551.12,722.11 536.68,731.62 C534.03,733.36 531.78,735.07 531.68,735.41 C531.50,736.02 559.77,752.73 561.29,752.91 C561.72,752.96 566.22,749.98 571.29,746.28 ZM 374.37 740.77 C375.09,739.64 375.00,738.70 374.07,737.58 C372.41,735.59 371.55,735.59 369.52,737.62 C368.03,739.11 368.04,739.39 369.63,741.14 C371.55,743.27 372.86,743.16 374.37,740.77 ZM 632.00 738.06 C632.00,737.55 633.46,736.99 635.25,736.81 C637.96,736.55 638.55,736.04 638.82,733.75 C639.09,731.37 638.78,731.00 636.54,731.00 C635.11,731.00 633.68,731.67 633.36,732.50 C633.05,733.33 632.19,734.00 631.45,734.00 C629.70,734.00 628.68,735.73 629.38,737.55 C630.00,739.15 632.00,739.55 632.00,738.06 ZM 710.07 737.42 C711.82,735.30 710.07,732.50 707.00,732.50 C703.93,732.50 702.18,735.30 703.93,737.42 C704.65,738.29 706.03,739.00 707.00,739.00 C707.97,739.00 709.35,738.29 710.07,737.42 ZM 455.21 696.96 C459.48,695.77 469.25,688.72 490.38,671.58 C506.39,658.59 519.00,649.09 520.32,649.04 C521.73,648.97 519.91,653.36 516.95,657.13 C515.38,659.13 514.36,661.02 514.68,661.34 C515.72,662.39 648.92,662.10 652.84,661.04 C658.30,659.57 665.79,654.46 668.02,650.69 C669.76,647.73 675.38,644.00 678.09,644.00 C679.52,644.00 674.75,651.75 670.61,656.14 C668.72,658.14 664.11,661.30 660.36,663.14 L 653.54 666.50 L 580.79 666.78 C511.29,667.05 507.99,667.14 507.05,668.90 C506.51,669.92 500.59,675.42 493.90,681.12 L 481.73 691.50 L 494.12 692.26 C500.93,692.68 540.03,692.90 581.00,692.75 L 655.50 692.48 L 661.50 690.23 C674.29,685.43 683.39,676.62 688.68,663.89 C690.74,658.96 691.44,655.32 691.78,647.96 L 692.22 638.41 L 699.82 634.50 C732.03,617.92 755.31,583.34 762.46,541.50 C766.33,518.84 762.59,490.73 752.99,470.24 C743.34,449.65 726.59,430.43 707.50,418.05 C701.45,414.13 695.49,410.66 694.25,410.35 L 692.00 409.78 L 692.00 365.55 C692.00,325.77 691.82,320.77 690.21,315.90 C686.42,304.39 677.05,294.13 665.45,288.78 C660.72,286.60 659.24,286.49 631.53,286.19 L 602.55 285.88 L 597.53 280.53 C590.77,273.34 586.15,272.00 568.05,272.00 L 554.47 272.00 L 552.61 266.75 C548.59,255.46 540.55,246.34 530.79,242.02 C528.28,240.92 522.85,239.48 518.72,238.84 C497.04,235.47 476.29,247.71 470.53,267.29 L 469.28 271.50 L 452.89 272.01 C439.74,272.43 435.76,272.89 432.77,274.37 C429.08,276.19 422.00,283.14 422.00,284.95 C422.00,285.51 410.15,286.02 392.75,286.20 C357.44,286.58 355.99,286.94 345.01,297.92 C337.71,305.22 333.59,312.50 332.01,320.89 C331.35,324.39 331.01,382.80 331.01,487.89 C331.03,665.93 330.67,655.47 337.27,668.74 C341.07,676.39 349.00,684.20 357.05,688.23 C365.91,692.67 380.79,693.91 406.30,692.35 L 416.91 691.70 L 414.52 687.60 C412.24,683.68 410.79,678.84 409.52,670.83 L 408.94 667.15 L 389.72 666.79 C372.75,666.47 369.85,666.17 364.96,664.22 C357.37,661.20 348.81,653.36 345.31,646.22 L 342.50 640.50 L 342.50 480.50 L 342.50 320.50 L 344.88 315.24 C347.84,308.69 356.78,300.23 363.56,297.55 C367.89,295.84 371.64,295.55 393.75,295.22 C418.32,294.86 419.00,294.90 419.00,296.82 C419.00,299.80 415.77,300.17 392.03,299.92 C376.28,299.75 369.33,300.05 366.15,301.03 C360.86,302.67 352.69,309.79 349.70,315.39 L 347.50 319.50 L 347.24 478.46 C346.94,659.14 346.19,643.32 355.52,652.65 C359.77,656.90 362.00,658.25 367.62,659.95 C373.71,661.80 376.62,662.02 392.43,661.77 L 410.34 661.50 L 411.31 658.50 C411.85,656.85 413.15,654.26 414.21,652.75 L 416.14 650.00 L 394.82 649.98 C370.57,649.95 367.59,649.26 362.38,642.44 L 359.50 638.66 L 359.50 480.40 L 359.50 322.15 L 361.59 319.32 C362.74,317.77 365.17,315.49 366.99,314.25 C370.19,312.07 371.05,312.00 394.50,312.00 L 418.71 312.00 L 419.39 320.18 C419.84,325.49 420.79,329.62 422.09,331.93 C424.54,336.26 430.10,340.38 435.50,341.88 C438.26,342.64 461.71,342.99 511.07,342.99 C590.15,343.00 589.46,343.05 596.66,336.72 C601.55,332.43 603.00,328.50 603.00,319.53 L 603.00 312.00 L 627.03 312.00 C654.16,312.00 656.16,312.40 660.40,318.64 L 663.00 322.46 L 663.00 361.85 L 663.00 401.23 L 660.75 400.56 C659.51,400.19 653.75,399.63 647.94,399.31 C605.09,396.97 564.44,417.28 539.79,453.35 C536.89,457.59 535.49,458.89 534.70,458.10 C533.29,456.69 452.21,456.58 450.00,457.98 C448.68,458.81 448.70,459.13 450.15,460.58 C451.51,461.94 455.53,462.40 473.15,463.19 C500.14,464.42 519.95,463.80 525.91,461.56 C528.34,460.65 531.29,460.03 532.48,460.20 C534.58,460.49 534.53,460.73 530.74,468.83 C527.37,476.03 526.67,476.93 525.61,475.49 C524.50,473.97 520.99,473.82 487.99,473.95 C450.31,474.10 447.02,474.44 450.48,477.91 C451.86,479.29 456.92,479.54 489.11,479.84 C523.18,480.14 526.10,480.30 525.49,481.84 C522.96,488.26 520.63,503.20 520.10,516.50 L 519.50 531.50 L 484.50 532.00 C454.42,532.43 449.50,532.71 449.50,533.99 C449.50,537.48 454.17,538.05 487.84,538.69 L 520.78 539.32 L 521.32 543.36 C521.62,545.59 521.64,547.77 521.37,548.20 C521.10,548.64 505.47,549.00 486.63,549.00 C460.07,549.00 451.98,549.29 450.60,550.30 C448.91,551.54 448.91,551.68 450.56,553.05 C451.99,554.24 458.68,554.56 487.90,554.85 L 523.50 555.20 L 527.80 565.85 C530.17,571.71 532.19,577.03 532.30,577.67 C532.41,578.31 529.37,581.34 525.55,584.40 C519.21,589.48 518.28,589.91 514.89,589.37 C510.45,588.66 511.35,588.06 482.85,610.55 C471.66,619.38 454.22,633.10 444.10,641.03 C428.53,653.22 425.37,656.14 423.65,659.97 C419.30,669.59 421.67,679.76 430.35,688.83 C438.02,696.84 446.12,699.48 455.21,696.96 ZM 325.93 670.25 C322.99,664.46 320.68,656.39 319.54,647.92 L 318.93 643.34 L 296.50 636.69 C248.95,622.59 211.93,607.54 180.36,589.46 C90.41,537.97 72.60,486.77 126.63,435.00 C147.47,415.02 171.19,399.40 210.50,379.75 C241.04,364.49 271.55,351.48 301.67,340.89 L 319.84 334.50 L 319.28 331.50 C318.97,329.85 318.57,328.33 318.39,328.12 C317.88,327.51 292.94,336.25 273.50,343.85 C238.37,357.60 216.78,367.58 185.00,384.81 C147.70,405.02 116.13,430.44 99.79,453.40 C93.84,461.76 87.00,475.86 84.46,485.00 C81.98,493.90 81.87,513.11 84.26,521.80 C89.55,541.10 99.06,556.32 116.89,574.02 C144.95,601.90 178.38,622.45 235.00,646.65 C253.75,654.67 319.75,675.63 327.18,675.93 C328.59,675.99 328.40,675.11 325.93,670.25 ZM 714.15 671.44 C809.18,646.48 888.38,603.22 922.76,557.50 C925.65,553.65 930.26,546.00 932.99,540.50 C958.54,489.08 930.03,437.55 850.00,390.51 C824.46,375.51 777.08,353.09 747.24,341.91 C735.27,337.42 705.21,327.00 704.23,327.00 C704.04,327.00 704.02,328.68 704.19,330.74 L 704.50 334.49 L 717.00 338.85 C745.76,348.88 751.31,351.00 775.50,361.22 C836.11,386.82 886.77,419.19 908.96,446.48 C922.26,462.85 928.25,477.23 928.31,493.00 C928.38,512.38 920.08,529.09 900.90,548.14 C883.19,565.73 855.23,584.60 824.55,599.66 C818.47,602.64 812.69,605.53 811.70,606.08 C804.57,610.04 774.02,622.03 754.50,628.52 C739.53,633.51 710.80,642.07 706.75,642.76 C704.21,643.19 704.00,643.58 704.00,647.90 C704.00,654.08 701.58,663.14 698.03,670.25 C696.45,673.41 695.53,676.00 695.98,676.00 C696.43,676.00 704.60,673.95 714.15,671.44 ZM 830.82 658.75 C831.10,656.30 830.81,656.00 828.17,656.00 C824.85,656.00 823.28,658.42 825.15,660.67 C827.10,663.03 830.46,661.89 830.82,658.75 ZM 209.50 652.50 C209.50,649.86 209.12,649.46 206.34,649.19 C203.85,648.95 203.03,649.34 202.50,650.99 C201.60,653.84 203.74,656.17 206.91,655.80 C209.05,655.55 209.50,654.98 209.50,652.50 ZM 319.00 631.58 C319.00,630.25 319.25,628.52 319.55,627.73 C319.96,626.67 318.45,625.83 313.80,624.54 C295.06,619.33 266.64,610.07 253.06,604.75 C227.80,594.87 190.80,575.68 171.41,562.40 C150.03,547.76 133.07,530.23 126.70,516.17 C125.12,512.68 124.58,509.49 124.57,503.50 C124.56,496.10 124.85,494.94 128.48,488.11 C138.42,469.35 166.28,447.41 209.79,424.06 C230.01,413.21 255.04,401.64 256.07,402.67 C256.54,403.14 259.39,409.41 262.41,416.62 C265.43,423.82 271.32,436.86 275.49,445.61 C285.88,467.37 291.00,475.61 291.00,470.58 C291.00,469.80 293.48,464.80 296.50,459.46 C299.52,454.11 302.00,449.53 302.00,449.26 C302.00,448.99 299.67,444.66 296.83,439.64 C292.41,431.83 273.00,394.20 273.00,393.45 C273.00,392.83 288.68,386.77 302.25,382.14 C310.36,379.38 317.45,376.84 318.00,376.50 C318.59,376.14 319.00,370.15 319.00,361.94 C319.00,349.89 318.79,348.00 317.42,348.00 C313.79,348.00 275.36,362.42 251.83,372.60 C158.13,413.16 109.17,451.64 102.76,489.75 C100.86,501.01 104.40,515.10 112.15,527.15 C133.44,560.23 187.83,593.11 261.86,617.64 C280.46,623.80 314.56,633.83 317.25,633.93 C318.45,633.98 319.00,633.24 319.00,631.58 ZM 750.00 621.52 C792.97,609.14 838.53,588.67 870.00,567.62 C890.56,553.87 908.73,535.35 916.27,520.46 C921.93,509.28 923.58,495.53 920.61,484.36 C911.38,449.71 863.81,412.61 782.17,376.37 C759.89,366.48 716.92,350.03 706.64,347.45 L 703.95 346.77 L 704.22 361.47 L 704.50 376.17 L 723.50 382.90 C743.17,389.87 752.00,393.46 752.00,394.48 C752.00,394.81 751.16,396.30 750.12,397.79 C749.09,399.28 745.26,406.05 741.60,412.84 L 734.96 425.19 L 740.53 431.20 C743.59,434.51 746.80,438.30 747.66,439.61 C748.53,440.92 749.57,442.00 749.98,442.00 C750.75,442.00 759.35,423.54 765.02,409.72 C767.85,402.82 768.46,402.00 770.36,402.55 C775.53,404.03 825.73,429.58 837.82,436.88 C870.54,456.64 892.66,477.12 898.66,493.22 C899.54,495.57 900.27,500.56 900.27,504.29 C900.31,524.06 877.68,548.41 836.53,572.88 C810.59,588.30 788.60,598.60 759.00,609.17 C743.62,614.67 742.14,615.42 737.25,620.25 C734.36,623.10 732.00,625.76 732.00,626.17 C732.00,626.57 734.14,626.24 736.75,625.44 C739.36,624.63 745.33,622.87 750.00,621.52 ZM 281.55 601.74 C285.21,590.45 298.48,557.82 304.60,545.07 C311.43,530.81 315.19,525.00 317.55,525.00 C318.78,525.00 319.00,520.53 319.00,495.00 C319.00,478.50 318.66,465.01 318.25,465.03 C317.49,465.06 312.60,472.78 303.71,488.00 C295.92,501.33 277.76,537.10 270.97,552.50 C261.91,573.03 252.75,597.16 253.68,598.02 C255.02,599.25 278.41,607.86 279.16,607.40 C279.54,607.17 280.61,604.62 281.55,601.74 ZM 304.43 605.43 C306.40,603.46 306.43,601.60 304.51,600.01 C302.20,598.09 298.00,599.58 298.00,602.32 C298.00,606.60 301.54,608.31 304.43,605.43 ZM 758.70 602.60 C764.59,600.60 769.53,598.52 770.77,597.51 C771.25,597.12 765.08,579.68 764.12,578.72 C763.56,578.16 762.92,578.71 762.48,580.15 C761.23,584.19 753.95,598.35 751.37,601.75 C748.35,605.73 749.22,605.83 758.70,602.60 ZM 248.04 588.25 C252.46,574.74 266.44,541.07 274.95,523.44 C284.53,503.60 292.86,488.48 308.71,462.17 C319.17,444.82 320.75,440.86 319.29,435.78 C318.52,433.13 318.35,433.28 313.35,440.78 C310.52,445.02 305.15,453.67 301.42,460.00 C297.69,466.33 293.65,473.08 292.43,475.00 C284.50,487.57 266.00,524.12 256.75,545.50 C250.59,559.76 239.00,589.96 239.00,591.77 C239.00,592.49 243.09,594.56 245.17,594.89 C245.54,594.95 246.83,591.96 248.04,588.25 ZM 785.22 592.16 C785.62,591.77 783.21,584.04 779.88,574.98 C776.55,565.92 773.59,557.71 773.30,556.75 C772.41,553.84 771.46,554.74 769.74,560.15 C768.58,563.78 768.38,565.84 769.08,567.14 C769.62,568.15 771.59,573.38 773.46,578.74 C779.21,595.26 778.67,594.30 781.77,593.53 C783.27,593.16 784.82,592.54 785.22,592.16 ZM 319.07 565.38 C319.00,558.91 318.73,553.40 318.47,553.14 C317.12,551.78 316.88,554.98 317.54,565.96 C317.94,572.62 318.47,577.86 318.73,577.61 C318.98,577.35 319.14,571.85 319.07,565.38 ZM 429.08 562.08 L 432.00 559.15 L 432.00 545.78 C432.00,537.72 432.42,531.98 433.06,531.34 C434.12,530.28 433.34,524.97 432.14,525.04 C431.79,525.06 430.27,526.75 428.76,528.79 C427.25,530.83 422.41,536.55 418.01,541.50 C413.61,546.45 409.76,551.29 409.44,552.26 C408.96,553.70 407.54,552.81 401.45,547.26 C397.37,543.54 394.03,540.15 394.02,539.73 C393.98,537.99 399.74,540.48 403.04,543.63 C404.99,545.48 407.04,547.00 407.59,547.00 C408.14,547.00 410.27,544.79 412.33,542.09 C414.39,539.39 419.40,534.02 423.47,530.16 C429.43,524.50 430.60,522.91 429.50,522.00 C428.57,521.23 422.45,520.97 409.98,521.19 C386.44,521.59 388.00,520.04 388.00,543.16 C388.00,559.80 388.04,560.13 390.45,562.55 C392.86,564.95 393.22,565.00 409.53,565.00 L 426.15 565.00 L 429.08 562.08 ZM 781.50 507.00 C781.16,506.45 780.21,506.00 779.38,506.00 C778.56,506.00 778.16,506.45 778.50,507.00 C778.84,507.55 779.79,508.00 780.62,508.00 C781.44,508.00 781.84,507.55 781.50,507.00 ZM 429.25 486.94 C431.97,484.01 432.00,483.80 432.00,470.54 C432.00,462.67 432.41,456.86 433.00,456.50 C433.55,456.16 434.00,454.33 434.00,452.44 C434.00,450.55 433.55,449.00 433.00,449.00 C432.45,449.00 432.00,449.58 432.00,450.28 C432.00,450.98 429.06,454.47 425.47,458.03 C421.88,461.59 416.61,467.76 413.76,471.75 C410.90,475.74 408.32,479.00 408.01,479.00 C407.70,479.00 404.32,475.85 400.50,472.00 L 393.55 465.00 L 396.73 465.00 C399.17,465.00 400.57,465.82 402.71,468.50 C404.24,470.42 405.95,472.01 406.50,472.02 C408.10,472.05 430.12,448.71 429.27,447.90 C428.85,447.49 420.47,447.01 410.66,446.83 L 392.83 446.50 L 390.41 449.31 C388.08,452.02 388.00,452.64 388.00,468.12 C388.00,477.14 388.45,484.97 389.03,486.05 C391.39,490.47 394.47,491.10 411.00,490.48 L 426.50 489.90 L 429.25 486.94 ZM 820.50 483.00 C820.50,481.15 819.90,480.41 818.19,480.17 C814.84,479.70 812.77,481.71 814.09,484.16 C814.81,485.51 815.97,486.02 817.82,485.81 C819.93,485.57 820.50,484.97 820.50,483.00 ZM 221.07 467.96 C224.99,465.86 222.05,461.27 217.51,462.41 C214.81,463.09 214.16,465.76 216.20,467.80 C217.67,469.27 218.57,469.30 221.07,467.96 ZM 790.74 463.48 L 792.95 460.10 L 790.39 457.05 C787.16,453.21 783.99,453.14 779.89,456.81 C776.13,460.17 776.53,463.13 781.12,465.93 C785.06,468.32 788.07,467.56 790.74,463.48 ZM 258.08 459.30 C259.49,455.58 257.63,453.00 253.54,453.00 C247.19,453.00 245.37,458.56 250.79,461.40 C254.11,463.14 256.93,462.32 258.08,459.30 ZM 311.33 435.77 L 317.16 426.60 L 315.03 423.05 C313.86,421.10 309.54,412.55 305.43,404.06 C301.32,395.57 297.83,388.50 297.67,388.33 C297.50,388.17 293.23,389.69 288.18,391.70 C280.00,394.95 279.05,395.59 279.63,397.43 C280.24,399.34 298.42,434.36 302.64,441.74 C303.67,443.53 304.73,444.98 305.00,444.96 C305.27,444.95 308.12,440.81 311.33,435.77 ZM 777.94 430.11 C779.24,427.68 776.97,425.56 774.05,426.48 C772.08,427.11 771.28,429.94 772.67,431.33 C773.99,432.65 776.95,431.96 777.94,430.11 ZM 739.49 409.01 C743.07,401.87 745.98,395.68 745.97,395.26 C745.95,394.84 741.66,393.07 736.43,391.33 L 726.94 388.16 L 721.48 399.04 L 716.02 409.92 L 720.26 412.93 C722.59,414.58 726.08,417.29 728.00,418.94 C729.92,420.59 731.83,421.96 732.24,421.97 C732.65,421.99 735.91,416.16 739.49,409.01 ZM 429.12 412.19 C431.99,408.98 432.00,408.93 432.00,395.54 C432.00,387.67 432.41,381.86 433.00,381.50 C434.24,380.73 434.32,377.31 433.11,376.57 C431.44,375.54 413.44,395.24 409.07,402.86 C408.50,403.87 406.43,402.36 401.20,397.14 C397.31,393.24 394.58,389.76 395.14,389.41 C395.70,389.07 396.82,389.73 397.64,390.89 C398.45,392.05 399.98,393.00 401.03,393.00 C402.09,393.00 403.69,394.12 404.59,395.50 C405.49,396.88 406.76,398.00 407.40,398.00 C408.05,398.00 410.17,395.86 412.13,393.25 C414.09,390.64 418.93,385.04 422.89,380.81 C429.74,373.49 429.99,373.06 427.99,371.99 C426.60,371.25 420.30,370.97 409.47,371.18 C387.40,371.61 388.61,370.39 388.19,392.84 C387.78,414.64 387.53,414.24 402.16,415.12 C407.85,415.46 415.59,415.67 419.37,415.58 C425.75,415.43 426.44,415.20 429.12,412.19 ZM 571.26 403.62 C588.65,400.25 578.55,399.56 511.79,399.53 C457.01,399.50 451.93,399.64 450.38,401.19 C448.79,402.78 448.83,402.92 451.09,403.42 C456.37,404.59 461.40,404.70 512.00,404.81 C551.54,404.90 566.17,404.60 571.26,403.62 ZM 599.49 387.12 C621.47,386.57 624.51,386.30 624.79,384.87 C625.07,383.38 618.40,383.18 547.36,382.50 C466.89,381.72 451.66,381.94 449.74,383.86 C447.10,386.50 450.97,387.50 466.30,388.10 C482.31,388.72 557.20,388.18 599.49,387.12 ZM 151.30 374.89 C152.81,372.49 151.42,370.00 148.57,370.00 C145.17,370.00 143.42,373.27 145.62,375.48 C147.53,377.39 149.88,377.14 151.30,374.89 ZM 876.80 364.80 C879.92,361.68 877.10,357.20 872.86,358.54 C869.65,359.56 871.06,366.00 874.50,366.00 C875.10,366.00 876.14,365.46 876.80,364.80 ZM 183.47 351.49 C186.66,343.98 189.91,340.86 196.96,338.51 C199.72,337.60 202.19,336.49 202.46,336.06 C202.73,335.63 200.03,334.04 196.46,332.52 C189.04,329.37 186.20,326.44 182.94,318.57 C181.67,315.51 180.33,313.00 179.97,313.00 C179.60,313.00 178.08,315.87 176.59,319.39 C173.29,327.13 171.00,329.41 163.37,332.51 C160.14,333.82 157.50,335.17 157.50,335.51 C157.50,335.84 160.55,337.40 164.27,338.97 C172.15,342.30 174.19,344.40 177.12,352.25 C178.30,355.41 179.59,358.00 179.98,358.00 C180.38,358.00 181.94,355.07 183.47,351.49 ZM 809.00 350.50 C809.00,348.52 808.50,348.00 806.56,348.00 C805.22,348.00 803.83,348.47 803.47,349.05 C802.31,350.93 803.88,353.00 806.47,353.00 C808.50,353.00 809.00,352.51 809.00,350.50 ZM 254.79 342.14 C254.97,341.59 253.05,334.24 250.51,325.82 C242.30,298.56 237.97,275.88 235.93,249.50 C232.78,208.75 240.40,178.00 258.04,160.32 C289.85,128.43 355.53,142.23 454.94,201.69 C472.86,212.41 485.02,219.95 492.94,225.25 C497.05,228.01 497.73,228.16 502.44,227.32 L 507.50 226.42 L 496.50 219.29 C483.82,211.07 482.33,210.14 463.50,198.75 C407.23,164.71 358.66,143.73 323.00,138.05 C312.25,136.34 293.65,136.79 283.62,139.01 C269.93,142.03 261.07,146.90 250.91,156.98 C232.86,174.89 225.34,195.25 222.83,233.00 C221.84,248.00 221.92,253.20 223.37,269.38 C224.31,279.76 226.22,295.06 227.62,303.38 C230.00,317.49 235.51,341.05 237.87,347.20 L 238.91 349.89 L 246.68 346.51 C250.96,344.66 254.61,342.68 254.79,342.14 ZM 788.59 340.35 C798.30,305.44 802.56,273.15 801.72,241.09 C800.60,199.03 792.80,175.59 773.56,156.50 C764.75,147.75 755.81,142.55 743.99,139.29 C734.21,136.59 705.98,136.83 693.00,139.72 C664.24,146.13 626.33,162.03 585.35,184.86 C569.23,193.85 563.75,197.11 535.50,214.59 C514.66,227.49 515.64,226.56 522.00,227.31 C527.13,227.92 527.57,227.77 536.40,222.29 C541.40,219.18 549.10,214.41 553.50,211.68 C602.70,181.17 649.85,158.47 682.76,149.45 C699.19,144.94 716.00,142.68 726.50,143.56 C752.43,145.73 767.91,155.56 777.90,176.20 C780.65,181.87 783.60,189.30 784.47,192.72 C790.37,216.04 790.53,246.52 784.92,280.00 C782.41,295.01 776.24,319.70 771.99,331.75 C770.29,336.56 768.81,340.92 768.70,341.44 C768.51,342.31 785.12,350.13 785.82,349.49 C785.99,349.33 787.24,345.22 788.59,340.35 ZM 842.44 343.40 C842.80,341.96 844.05,338.74 845.22,336.26 C847.04,332.38 848.22,331.34 853.42,328.98 C856.77,327.47 860.36,325.94 861.42,325.58 C863.82,324.77 862.75,323.78 857.06,321.58 C854.61,320.64 851.30,318.93 849.69,317.78 C846.73,315.67 842.03,307.03 842.01,303.67 C841.99,300.66 839.76,302.33 838.35,306.41 C835.31,315.20 829.77,320.20 820.68,322.39 C816.56,323.39 817.85,325.12 824.32,327.27 C830.94,329.48 834.94,333.07 836.89,338.58 C839.66,346.41 840.01,347.11 840.89,346.57 C841.38,346.27 842.07,344.84 842.44,343.40 ZM 268.87 337.36 C271.83,336.06 274.87,335.00 275.62,335.00 C277.55,335.00 277.48,334.60 272.97,318.17 C256.53,258.35 257.60,206.94 275.70,186.91 C292.86,167.91 329.47,172.13 384.84,199.49 C404.98,209.44 438.82,229.23 456.48,241.38 L 467.46 248.94 L 471.70 244.09 C474.03,241.43 478.20,237.80 480.97,236.02 C483.74,234.24 486.00,232.65 486.00,232.49 C486.00,231.99 472.45,223.19 458.50,214.64 C418.19,189.93 382.09,171.77 354.50,162.33 C336.38,156.13 325.65,153.90 310.96,153.29 C287.37,152.32 274.44,156.46 262.00,168.96 C251.88,179.14 245.00,194.38 241.91,213.50 C240.06,224.89 240.32,254.75 242.39,270.00 C245.47,292.64 253.68,328.84 258.01,338.81 C259.14,341.42 259.87,341.33 268.87,337.36 ZM 766.00 340.68 C766.00,340.51 768.03,333.44 770.51,324.97 C784.22,278.16 787.74,232.16 779.99,201.32 C776.92,189.12 770.07,176.22 762.73,168.80 C750.69,156.63 737.86,152.40 715.63,153.25 C696.41,153.99 680.00,158.10 654.00,168.70 C638.37,175.07 612.97,187.59 594.42,198.06 C571.74,210.87 537.98,231.70 538.03,232.86 C538.04,233.21 540.27,235.01 542.99,236.85 C545.71,238.69 549.79,242.22 552.06,244.68 L 556.19 249.16 L 565.85 242.66 C596.82,221.78 647.77,194.15 671.00,185.63 C690.04,178.64 702.95,175.82 716.50,175.67 C735.59,175.47 744.35,179.28 751.99,191.10 C760.30,203.97 763.46,220.31 762.70,246.50 C761.94,272.45 758.04,295.64 749.88,322.81 C748.17,328.48 746.99,333.32 747.24,333.57 C747.83,334.17 764.26,340.90 765.25,340.96 C765.66,340.98 766.00,340.86 766.00,340.68 ZM 308.88 274.00 C310.65,271.80 312.72,270.00 313.49,270.00 C316.36,270.00 315.88,268.13 312.50,266.13 C310.57,265.00 308.24,262.48 307.31,260.53 C305.54,256.81 304.00,255.91 304.00,258.60 C304.00,260.26 298.93,265.64 295.48,267.65 C293.58,268.75 293.61,268.84 296.15,269.84 C297.61,270.41 300.03,272.48 301.52,274.44 C303.01,276.40 304.56,278.00 304.95,278.00 C305.34,278.00 307.11,276.20 308.88,274.00 ZM 346.44 245.78 C348.45,242.91 348.42,240.12 346.35,237.83 C344.12,235.37 340.52,235.52 338.04,238.19 C335.46,240.95 335.45,243.45 338.00,246.00 C340.65,248.65 344.50,248.55 346.44,245.78 ZM 500.80 196.80 C503.84,193.76 500.77,189.98 496.93,192.04 C494.57,193.30 494.54,193.83 496.65,196.17 C498.60,198.32 499.19,198.41 500.80,196.80 ZM 535.90 184.25 C538.52,176.71 541.53,173.32 547.64,171.03 C550.79,169.85 553.78,168.64 554.27,168.33 C554.77,168.02 551.93,166.20 547.96,164.28 C540.90,160.87 540.67,160.63 537.62,153.90 C535.90,150.11 534.27,147.01 533.99,147.01 C533.72,147.00 532.44,149.71 531.16,153.02 C528.55,159.74 525.38,162.71 517.50,165.82 C512.64,167.73 512.57,167.82 515.00,168.84 C527.82,174.22 526.84,173.45 530.28,180.92 C532.05,184.77 533.75,187.94 534.05,187.96 C534.35,187.98 535.18,186.31 535.90,184.25 ZM 464.34 172.83 C465.97,170.24 464.36,167.83 461.26,168.18 C457.93,168.57 456.96,171.77 459.60,173.70 C461.71,175.24 462.96,175.01 464.34,172.83 ZM 560.34 137.83 C561.97,135.24 560.36,132.83 557.26,133.18 C553.93,133.57 552.96,136.77 555.60,138.70 C557.71,140.24 558.96,140.01 560.34,137.83 ZM 431.01 670.51 C429.17,668.29 430.59,662.76 433.76,659.77 C436.46,657.23 443.56,651.69 470.60,631.00 C478.15,625.22 490.22,615.90 497.42,610.27 C504.61,604.65 511.40,600.05 512.50,600.05 C514.91,600.05 519.51,603.97 523.96,609.80 C528.20,615.34 527.07,616.45 522.12,611.61 L 518.27 607.86 L 514.55 609.41 C512.50,610.27 508.51,613.00 505.66,615.49 C502.82,617.98 494.88,624.21 488.00,629.33 C458.64,651.22 437.91,667.30 436.13,669.57 C433.92,672.38 432.74,672.59 431.01,670.51 ZM 531.00 648.65 C531.00,647.91 533.14,645.32 535.76,642.90 C538.38,640.48 544.05,633.89 548.37,628.25 C552.68,622.61 556.64,618.00 557.16,618.00 C557.68,618.00 561.12,620.42 564.80,623.38 C577.55,633.62 590.88,640.95 605.00,645.49 C609.67,646.99 614.40,648.59 615.50,649.04 C616.60,649.49 598.04,649.90 574.25,649.93 C538.56,649.99 531.00,649.76 531.00,648.65 ZM 621.00 629.89 C597.00,625.54 576.35,614.07 559.65,595.82 C544.18,578.92 536.14,563.90 530.83,542.00 C529.99,538.52 529.50,530.24 529.50,519.50 C529.50,504.82 529.83,501.20 531.91,493.00 C543.53,447.26 581.36,413.91 628.30,408.02 C656.50,404.49 685.53,412.28 708.33,429.50 C748.32,459.72 763.66,505.70 749.42,552.68 C742.14,576.72 727.54,596.39 706.00,611.18 C680.26,628.86 650.89,635.32 621.00,629.89 ZM 661.15 620.10 C692.93,613.65 718.32,594.89 732.81,567.18 C761.03,513.20 737.04,448.22 680.48,425.41 C639.53,408.90 591.24,420.69 563.15,454.06 C547.62,472.52 540.29,491.39 539.30,515.50 C538.46,536.20 542.57,553.83 552.31,571.23 C565.59,594.95 592.09,614.21 619.34,619.93 C631.72,622.53 648.84,622.60 661.15,620.10 ZM 531.00 608.80 C531.00,607.31 539.76,599.00 543.37,597.07 C545.20,596.09 546.36,595.96 547.07,596.67 C547.77,597.37 545.55,599.64 540.04,603.85 C531.46,610.41 531.00,610.66 531.00,608.80 ZM 526.07 601.57 L 522.83 598.22 L 526.52 595.36 C528.55,593.79 532.05,591.00 534.31,589.16 L 538.40 585.82 L 541.18 589.16 C542.70,591.00 543.96,592.80 543.97,593.16 C544.00,593.74 533.22,602.57 530.41,604.26 C529.81,604.63 527.86,603.42 526.07,601.57 ZM 677.73 392.75 C676.24,391.63 676.03,387.74 675.78,356.00 C675.47,316.55 675.64,317.61 668.33,309.07 C661.36,300.92 659.92,300.58 630.80,300.00 C605.43,299.51 601.67,298.97 603.45,296.09 C604.55,294.31 648.21,294.64 655.29,296.49 C665.36,299.11 672.27,304.90 677.75,315.29 L 680.50 320.50 L 680.81 356.39 C680.98,376.13 680.73,392.67 680.25,393.15 C679.77,393.63 678.66,393.46 677.73,392.75 ZM 438.29 325.34 C436.03,323.87 433.13,320.83 431.84,318.59 C429.78,314.98 429.50,313.21 429.50,303.50 C429.50,289.92 430.07,287.81 434.68,284.29 L 438.34 281.50 L 458.05 281.16 L 477.77 280.82 L 478.44 275.77 C479.82,265.34 487.31,254.96 496.84,250.28 C501.76,247.86 503.68,247.50 511.50,247.51 C518.57,247.51 521.49,247.97 525.12,249.64 C535.02,254.21 542.18,263.36 544.41,274.30 L 545.67 280.50 L 565.27 281.00 C583.13,281.46 585.11,281.68 587.68,283.59 C592.05,286.83 593.36,290.57 593.81,301.00 C594.44,315.83 591.77,322.39 583.58,326.10 C579.74,327.85 575.52,327.96 510.95,327.98 L 442.40 328.00 L 438.29 325.34 ZM 583.75 323.13 C589.18,320.36 590.00,317.81 590.00,303.65 C590.00,290.50 589.49,288.98 585.05,289.03 L 582.50 289.06 L 585.25 291.12 C587.88,293.08 588.00,293.54 588.00,301.83 C587.99,311.55 586.08,316.26 581.43,318.02 C579.86,318.62 552.32,319.00 509.99,319.00 L 441.11 319.00 L 438.56 316.75 C437.16,315.51 435.36,312.70 434.57,310.50 L 433.14 306.50 L 433.07 311.67 C433.00,316.53 433.25,317.06 437.12,320.37 C439.38,322.31 442.19,324.06 443.37,324.26 C444.54,324.46 475.74,324.73 512.70,324.86 C577.78,325.08 580.02,325.03 583.75,323.13 ZM 518.51 288.56 C522.01,285.89 525.00,280.52 525.00,276.91 C525.00,272.57 520.93,265.87 517.39,264.39 C507.32,260.18 498.26,266.37 498.06,277.60 C497.94,283.94 505.49,290.99 512.41,291.00 C514.00,291.00 516.75,289.90 518.51,288.56 ZM 402.50 538.04 C400.30,535.87 397.72,534.08 396.77,534.05 C394.89,534.00 393.41,529.97 394.36,527.50 C394.83,526.27 397.30,526.00 407.97,526.00 C415.33,526.00 421.00,526.40 421.00,526.93 C421.00,528.35 408.86,542.00 407.60,541.99 C407.00,541.99 404.70,540.21 402.50,538.04 ZM 405.25 465.59 C404.16,464.21 402.09,462.54 400.64,461.88 C399.19,461.22 398.00,460.08 398.00,459.34 C398.00,458.60 397.07,458.00 395.93,458.00 C394.27,458.00 393.93,457.46 394.18,455.25 C394.45,452.97 394.97,452.51 397.25,452.56 C398.76,452.60 404.76,452.71 410.59,452.81 L 421.18 453.00 L 414.95 460.25 C411.52,464.24 408.38,467.63 407.97,467.80 C407.56,467.96 406.33,466.97 405.25,465.59 ZM 404.39 390.26 C402.68,388.74 399.64,386.18 397.64,384.58 C393.97,381.63 392.76,377.67 395.25,376.76 C396.94,376.14 420.00,378.21 420.00,378.98 C420.00,379.32 417.19,382.61 413.75,386.31 L 407.50 393.02 L 404.39 390.26 ZM 622.34 611.05 C594.12,604.46 569.89,585.16 558.07,559.86 C551.19,545.13 548.44,528.54 550.07,511.50 C551.22,499.45 553.22,492.13 558.06,482.24 C569.85,458.17 591.00,439.63 615.20,432.16 C623.73,429.53 641.57,427.59 649.43,428.44 C656.50,429.20 672.02,433.22 678.34,435.93 C692.17,441.86 710.21,457.25 719.44,471.01 C730.06,486.85 734.25,500.46 734.36,519.50 C734.48,539.42 730.08,554.77 719.90,569.98 C707.17,589.02 687.16,603.60 664.93,610.05 C654.15,613.17 633.51,613.66 622.34,611.05 ZM 650.77 585.49 C657.73,583.85 667.00,579.53 667.00,577.93 C667.00,577.36 665.14,572.53 662.86,567.20 C655.01,548.81 648.01,530.66 648.55,530.12 C649.50,529.16 653.64,535.11 663.69,551.88 C673.85,568.85 677.72,574.00 680.32,574.00 C682.73,574.00 693.00,564.05 697.06,557.77 C701.30,551.23 705.00,538.87 705.00,531.26 C705.00,522.40 706.86,523.00 679.64,522.98 C666.36,522.98 654.85,522.56 654.06,522.06 C652.94,521.35 656.15,517.72 668.35,505.89 C677.01,497.50 687.42,487.99 691.50,484.74 C695.58,481.50 699.19,477.99 699.52,476.95 C700.47,473.93 697.21,468.40 691.30,462.99 C688.30,460.25 685.45,458.00 684.97,458.00 C684.21,458.00 681.55,460.93 673.77,470.37 L 671.40 473.24 L 666.38 470.69 C658.38,466.64 649.54,464.72 638.50,464.65 C622.34,464.53 607.90,469.52 596.81,479.03 C586.79,487.62 578.75,504.04 577.39,518.67 C575.90,534.74 583.27,556.00 590.34,556.00 C592.29,556.00 598.44,552.56 624.70,536.77 C631.96,532.40 638.71,528.99 639.70,529.18 C640.96,529.42 643.74,534.65 649.02,546.74 C658.44,568.26 660.32,573.27 658.80,572.77 C658.17,572.56 654.24,565.88 650.06,557.94 C640.99,540.67 638.17,536.00 636.82,536.00 C636.27,536.00 634.56,536.89 633.03,537.98 C630.38,539.87 614.79,549.50 603.00,556.53 C599.97,558.34 596.45,560.94 595.16,562.31 C592.19,565.50 593.11,567.46 600.23,573.09 C614.95,584.72 634.10,589.42 650.77,585.49 ZM 557.90 502.25 C557.96,501.56 557.55,501.00 557.00,501.00 C556.45,501.00 556.04,502.69 556.10,504.75 C556.19,508.10 556.29,508.23 557.00,506.00 C557.44,504.62 557.85,502.94 557.90,502.25 ZM 508.86 281.06 C506.94,279.49 506.71,278.79 507.60,277.31 C509.54,274.12 517.00,274.77 517.00,278.12 C517.00,279.27 513.26,283.00 512.11,283.00 C511.62,283.00 510.16,282.13 508.86,281.06 ZM 655.84 531.18 C654.81,530.46 654.23,529.44 654.54,528.93 C654.87,528.40 664.28,528.00 676.27,528.00 C696.42,528.00 697.35,528.08 695.68,529.75 C694.18,531.25 691.31,531.57 675.83,532.00 C661.81,532.39 657.30,532.20 655.84,531.18 ZM 584.36 521.32 C583.28,517.00 585.69,505.55 589.11,498.78 C592.41,492.25 600.63,482.92 606.91,478.56 C611.32,475.50 618.95,472.57 626.60,470.98 C632.65,469.72 643.30,470.60 642.73,472.31 C642.53,472.90 637.68,474.57 631.94,476.01 C617.38,479.68 608.87,484.25 601.08,492.58 C594.00,500.14 588.38,510.67 587.38,518.23 C586.62,523.89 585.34,525.21 584.36,521.32 ZM 652.02 499.25 C652.03,498.84 653.43,494.67 655.13,490.00 C661.18,473.37 660.56,474.47 663.68,474.82 C665.23,475.00 667.17,475.75 668.00,476.48 C668.83,477.22 670.56,477.97 671.86,478.16 C673.95,478.46 673.49,479.08 667.73,483.75 C664.16,486.64 659.33,491.48 657.00,494.50 C652.81,499.93 651.98,500.72 652.02,499.25 Z" fill="rgb(253,253,253)"/>
</g>
</svg>